<?xml version="1.0" encoding="UTF-8"?> <!-- Generator: Adobe Illustrator 22.0.1, SVG Export Plug-In . SVG Version: 6.00 Build 0) --> <svg xmlns="http://www.w3.org/2000/svg" xmlns:xlink="http://www.w3.org/1999/xlink" id="Слой_1" x="0px" y="0px" viewBox="0 0 496 90.2" style="enable-background:new 0 0 496 90.2;" xml:space="preserve"> <style type="text/css"> .st0{fill:#1C1C1C;} </style> <g> <circle class="st0" cx="452.5" cy="45.2" r="43.5"></circle> </g> <path class="st0" d="M31,0.7c-18.3,0-31,12.7-31,31v58.5h8V31.7c0-14,9-23,23-23c14.1,0,24,9.5,24,23v58.5h8V31.7 C63,13.7,49.6,0.7,31,0.7z"></path> <path class="st0" d="M86,0.7v8c14.4,0,24,11.9,24,23v59h8v-59C118,16.8,105.8,0.7,86,0.7z"></path> <path class="st0" d="M273,0.7c-17.4,0.7-29.5,13.2-29.5,31v58.5h8V31.7c0-13.5,8.4-22.3,21.5-22.9V0.7z"></path> <path class="st0" d="M330,0.7c-24.8,0-45,20.2-45,45c0,24.8,20.2,45,45,45c13.7,0,26.6-6.4,35-16.8l-5.2-4.9l-0.7-0.6 c-7,9-17.8,14.3-29.2,14.3c-20.4,0-37-16.6-37-37c0-20.4,16.6-37,37-37c17.5,0,32.6,12.8,35.9,30.5l0.5,3l-34.9,0l8.5,8l34.5,0v-4 C374.5,21.1,354.6,0.7,330,0.7z"></path> <path class="st0" d="M181,0.7c-24.8,0-45,20.2-45,45c0,24.8,20.2,45,45,45c13.7,0,26.6-6.4,35-16.8l-5.2-4.9l-0.7-0.6 c-7,9-17.8,14.3-29.2,14.3c-20.4,0-37-16.6-37-37c0-20.4,16.6-37,37-37c17.5,0,32.6,12.8,35.9,30.5l0.5,3l-34.9,0l8.5,8l34.5,0v-4 C225.5,21.1,205.6,0.7,181,0.7z"></path> </svg> 